<?xml version="1.0" encoding="UTF-8" standalone="yes"?>

<svg viewBox="0 0 512 512" version="1.2" id="icon" xml:space="preserve"
  xmlns="http://www.w3.org/2000/svg"
  xmlns:svg="http://www.w3.org/2000/svg">
  <defs id="defs2" />
  <g id="layer1">
    <g id="g4780" transform="matrix(1.0300946,0,0,1.0300946,-10.497976,-0.0157736)">


      <style>
    .middle {
        fill: #315da8;
        }

        .sidepanels {
        fill:#684fa3;
        }
        @media (prefers-color-scheme: light) {
        .middle {
        fill: #315da8;
        }

        .sidepanels {
        fill:#684fa3;
        }

        }

        @media (prefers-color-scheme: dark) {
        .middle {
        fill: #adc6ff;
        }

        .sidepanels {
        fill: #d1bcff;
        }
        }
      </style>

      <path style="display:inline;"
        d="M 213,405.5 V 361 h 49 49 v 11.94748 11.94747 l -48.56688,32.55253 C 235.72134,435.35136 213.67134,450 213.43312,450 213.19491,450 213,429.975 213,405.5 Z m 0,-66 V 335 h 49 49 v 4.5 4.5 h -49 -49 z m 0,-95.11408 v -74.11407 l 4.63957,-0.63593 c 13.08505,-1.7935 21.6826,0.40984 28.61043,7.33215 l 4.75,4.74622 V 239.85714 298 h 11 11 v -58.36316 -58.36316 l 4.87655,-4.56144 c 7.18131,-6.71727 15.68691,-8.83034 28.48388,-7.07632 L 311,170.27185 V 244.38592 318.5 h -49 -49 z m 83.79912,67.03553 c 0.21221,-2.89355 -0.27057,-4.7821 -1.66165,-6.5 L 293.17671,302.5 H 262 230.82329 l -1.91164,2.36078 c -1.86198,2.29945 -2.65649,9.06105 -1.23207,10.48547 0.37377,0.37377 16.01127,0.56127 34.75,0.41667 L 296.5,315.5 Z M 249.67923,167.23098 c -0.45142,-0.69795 -3.15142,-2.48587 -6,-3.97313 -4.55283,-2.37707 -6.32821,-2.70737 -14.67923,-2.73099 -5.225,-0.0148 -10.9625,0.29939 -12.75,0.69814 L 213,161.95 V 81.456098 0.96219534 L 255.75,29.641702 c 23.5125,15.773729 45.5625,30.654972 49,33.069429 l 6.25,4.389921 v 47.566108 47.5661 l -2.25,-0.7082 c -1.2375,-0.38951 -6.13418,-0.94449 -10.88152,-1.23329 -9.4514,-0.57495 -14.01286,0.40392 -20.09704,4.31277 -2.05071,1.3175 -3.92339,2.39546 -4.16152,2.39546 -0.23813,0 -0.58528,-4.98786 -0.77144,-11.08414 L 272.5,144.83172 l -3.26578,-2.91586 c -4.51553,-4.03171 -9.95141,-4.03237 -14.46844,-0.002 L 251.5,144.82818 251,156.66409 c -0.28378,6.7175 -0.85494,11.28713 -1.32077,10.56689 z"
        class="middle" />

      <path style="display:inline;"
        d="M 323,429.96942 V 361 h 3 3 v -7.09879 c 0,-6.59812 -0.21159,-7.29644 -3,-9.90121 l -3,-2.80242 v -83.21542 -83.21542 l 2.25,0.78218 c 1.2375,0.43021 8.55,0.86786 16.25,0.97256 11.70146,0.15911 14.53255,0.50134 17.24368,2.08444 3.06694,1.79088 3.24402,2.21052 3.25,7.7017 0.006,5.69923 -0.31332,6.36171 -17.12251,35.5 -9.42085,16.33081 -17.32241,30.02988 -17.55901,30.44238 -0.23661,0.4125 0.83386,0.73456 2.37882,0.71568 2.61431,-0.0319 3.8141,-1.79006 17.30902,-25.36383 l 14.5,-25.32951 0.26717,24.86383 L 362.03434,252 h 2.46595 2.46595 l 0.26688,-25.69347 0.26688,-25.69346 15,26.17842 c 12.59601,21.9829 15.3606,26.18083 17.25,26.19346 1.2375,0.008 2.25,-0.40597 2.25,-0.92056 C 402,251.04735 369.37437,194.10596 367.90011,192.55 367.40505,192.0275 367,189.20088 367,186.26862 c 0,-4.17556 0.37939,-5.46529 1.75,-5.94902 5.37675,-1.89761 8.3566,-8.27882 6.34127,-13.57955 -1.18825,-3.12531 -6.48214,-6.73077 -9.89093,-6.73631 -3.9521,-0.006 -8.27792,2.93768 -9.85211,6.70525 l -1.49421,3.57615 -9.17701,-0.58853 c -7.59796,-0.48726 -20.20872,-2.89499 -21.39945,-4.08571 -0.16834,-0.16834 -0.18715,-14.54416 -0.0418,-31.94627 L 323.5,102.02444 372,134.63566 c 26.675,17.93617 48.51383,32.66817 48.53074,32.73778 0.0169,0.0696 -0.2081,60.13898 -0.5,133.48749 L 419.5,434.22186 371.25,466.58035 323,498.93884 Z M 397.93596,279.56291 C 400.8076,276.81025 401,276.16661 401,269.31291 V 262 h -37 -37 v 6.77749 c 0,4.64332 0.51274,7.50953 1.6283,9.10222 3.3704,4.81192 5.70626,5.11828 37.05766,4.86038 L 394.87193,282.5 Z M 405,257.5 V 255 H 364.5 324 v 2.5 2.5 H 364.5 405 Z M 152.27834,463.68227 104.05668,431.5 l -0.0283,-90.08592 c -0.0156,-49.54726 -0.29873,-109.62226 -0.62921,-133.5 L 102.79826,164.5 l 46.26299,-31 c 25.44464,-17.05 47.54003,-31.83169 49.10087,-32.8482 L 201,98.803597 v 33.476633 33.47662 l -6.75,1.73592 c -3.7125,0.95475 -10.8447,1.96723 -15.84932,2.24995 l -9.09933,0.51403 -0.62556,-3.1278 c -1.48585,-7.42927 -12.46588,-9.28511 -18.03843,-3.04885 -2.42152,2.70993 -2.7813,3.81009 -2.33475,7.13936 0.57524,4.2887 2.92688,7.52417 6.44739,8.87055 1.9439,0.74342 2.25,1.5849 2.25,6.18524 0,2.92861 -0.43068,5.75543 -0.95708,6.28183 -0.52639,0.52639 -8.61386,14.22889 -17.97216,30.45 -16.49799,28.59663 -16.93717,29.5028 -14.4515,29.81816 1.40997,0.17889 2.67209,0.17889 2.8047,0 0.13262,-0.17888 7.06648,-12.23874 15.40858,-26.79969 L 157,199.5511 V 225.77555 252 h 2.5 2.5 v -25.19991 -25.19991 l 10.60391,18.44991 c 5.83214,10.14745 12.46964,21.70763 14.75,25.68929 3.2062,5.59826 4.65615,7.24179 6.39609,7.25 1.2375,0.006 2.25,-0.40214 2.25,-0.90662 0,-0.50448 -7.65,-14.16211 -17,-30.3503 -16.83145,-29.14125 -17,-29.49246 -17,-35.42225 0,-5.41804 0.23841,-6.0978 2.5,-7.12826 1.375,-0.62649 2.5,-1.51531 2.5,-1.97517 0,-0.45985 5.9625,-0.80699 13.25,-0.77143 7.2875,0.0356 14.9375,-0.29324 17,-0.73066 l 3.75,-0.79532 v 83.51013 c 0,82.34187 -0.0278,83.52503 -1.98965,84.57496 -3.26218,1.74587 -5.14306,6.55612 -4.81094,12.30371 0.29272,5.06571 0.38564,5.21003 3.55059,5.51519 l 3.25,0.31336 v 67.43664 c 0,37.09015 -0.1125,67.40616 -0.25,67.36891 -0.1375,-0.0373 -21.94975,-14.54975 -48.47166,-32.25 z M 190.40143,281.60563 C 195.51774,279.4679 197,276.58354 197,268.76532 v -6.78966 L 159.75,262.23783 122.5,262.5 v 6.68481 c 0,6.00743 0.29262,6.9902 2.88775,9.6985 1.58826,1.65753 3.83826,3.20058 5,3.42901 1.16174,0.22842 14.3892,0.4766 29.39437,0.5515 21.315,0.10639 28.01202,-0.16879 30.61931,-1.25819 z M 200,257.5 V 255 h -41 -41 v 2.5 2.5 h 41 41 z"
        class="sidepanels" />
    </g>
  </g>


</svg>