<svg xmlns="http://www.w3.org/2000/svg" version="1.1" xmlns:xlink="http://www.w3.org/1999/xlink" width="1000" height="1000"><style>
    #light-icon {
      display: inline;
    }
    #dark-icon {
      display: none;
    }

    @media (prefers-color-scheme: dark) {
      #light-icon {
        display: none;
      }
      #dark-icon {
        display: inline;
      }
    }
  </style><g id="light-icon"><svg xmlns="http://www.w3.org/2000/svg" version="1.1" xmlns:xlink="http://www.w3.org/1999/xlink" width="1000" height="1000"><g><g transform="matrix(1.25,0,0,1.25,0,0)"><svg xmlns="http://www.w3.org/2000/svg" version="1.1" width="800px" height="800px" viewBox="-3.83 0 21.49514 21.49514" id="svg8" xmlns:cc="http://creativecommons.org/ns#" xmlns:dc="http://purl.org/dc/elements/1.1/" xmlns:inkscape="http://www.inkscape.org/namespaces/inkscape" xmlns:rdf="http://www.w3.org/1999/02/22-rdf-syntax-ns#" xmlns:sodipodi="http://sodipodi.sourceforge.net/DTD/sodipodi-0.dtd" xmlns:svg="http://www.w3.org/2000/svg"><defs id="defs2">

<clipPath clipPathUnits="userSpaceOnUse" id="clipPath23">

<rect height="170.00711" id="rect25" style="opacity:1;fill:none;fill-opacity:1;stroke:#000000;stroke-width:1.5;stroke-linecap:round;stroke-linejoin:round;stroke-miterlimit:4;stroke-dasharray:none;stroke-dashoffset:0;stroke-opacity:0.97641512" transform="rotate(90)" width="263.84616" x="6.7847877" y="110.36194"></rect>

</clipPath>

</defs><g id="layer1" transform="translate(19.837516,-525.27696)">

<rect height="58.184261" id="rect8011" ry="1.1433572" style="opacity:1;fill:none;fill-opacity:1;stroke:none;stroke-width:1.10699999;stroke-linecap:round;stroke-linejoin:round;stroke-miterlimit:4;stroke-dasharray:none;stroke-dashoffset:0;stroke-opacity:1" width="150.11761" x="-377.22021" y="-198.90477"></rect>

</g><g id="g8681" transform="translate(19.837516,-525.27696)">

<rect height="58.184261" id="rect8677" ry="1.1433572" style="opacity:1;fill:none;fill-opacity:1;stroke:none;stroke-width:1.10699999;stroke-linecap:round;stroke-linejoin:round;stroke-miterlimit:4;stroke-dasharray:none;stroke-dashoffset:0;stroke-opacity:1" width="150.11761" x="-377.22021" y="-198.90477"></rect>

</g><g id="g9233" transform="translate(19.837516,-525.27696)">

<rect height="58.184261" id="rect9229" ry="1.1433572" style="opacity:1;fill:none;fill-opacity:1;stroke:none;stroke-width:1.10699999;stroke-linecap:round;stroke-linejoin:round;stroke-miterlimit:4;stroke-dasharray:none;stroke-dashoffset:0;stroke-opacity:1" width="150.11761" x="-377.22021" y="-198.90477"></rect>

<rect height="368.83194" id="rect9311" ry="1.1433572" style="opacity:1;fill:none;fill-opacity:1;stroke:none;stroke-width:1.10699999;stroke-linecap:round;stroke-linejoin:round;stroke-miterlimit:4;stroke-dasharray:none;stroke-dashoffset:0;stroke-opacity:1" width="313.2399" x="-594.38983" y="-161.63449"></rect>

<ellipse cx="-13.08653" cy="546.461" id="ellipse8353" rx="3.877409" ry="0.31109855" style="opacity:1;fill:#b3b3b3;fill-opacity:1;stroke:none;stroke-width:0.79707766;stroke-linecap:round;stroke-linejoin:round;stroke-miterlimit:4;stroke-dasharray:none;stroke-dashoffset:0;stroke-opacity:1"></ellipse>

<path d="m -15.381757,546.10265 h 4.700133" id="path977-8-5-8-4-7-9-1-4" style="opacity:1;fill:none;fill-opacity:1;stroke:#241f1c;stroke-width:0.51981038;stroke-linecap:round;stroke-linejoin:round;stroke-miterlimit:4;stroke-dasharray:none;stroke-dashoffset:0;stroke-opacity:1"></path>

<rect height="3.3053586" id="rect6258-8" ry="1.6526793" style="opacity:1;fill:#2ca02c;fill-opacity:1;stroke:#241f1c;stroke-width:1.01823282;stroke-linecap:round;stroke-linejoin:round;stroke-miterlimit:4;stroke-dasharray:none;stroke-dashoffset:0;stroke-opacity:1" width="12.808264" x="-19.3284" y="532.60699"></rect>

<rect height="3.3053586" id="rect6258-1-3" ry="1.6526793" style="opacity:1;fill:#37c837;fill-opacity:1;stroke:#241f1c;stroke-width:0.9728685;stroke-linecap:round;stroke-linejoin:round;stroke-miterlimit:4;stroke-dasharray:none;stroke-dashoffset:0;stroke-opacity:1" width="11.697828" x="-18.773182" y="529.30164"></rect>

<rect height="3.3053586" id="rect6258-1-2-9" ry="1.6526793" style="opacity:1;fill:#5fd35f;fill-opacity:1;stroke:#241f1c;stroke-width:0.86014819;stroke-linecap:round;stroke-linejoin:round;stroke-miterlimit:4;stroke-dasharray:none;stroke-dashoffset:0;stroke-opacity:1" width="9.1399279" x="-17.494223" y="525.70703"></rect>

<path d="m -13.59735,545.85873 -0.04115,-13.40435 1.349957,-1.4e-4 0.07892,13.39302 z" id="path979-8-6-6-8-0-8-4-4-0-5-6-7-0" style="opacity:1;fill:#784421;fill-opacity:1;stroke:#241f1c;stroke-width:0.59457809;stroke-linecap:round;stroke-linejoin:round;stroke-miterlimit:4;stroke-dasharray:none;stroke-dashoffset:0;stroke-opacity:1"></path>

</g></svg></g></g></svg></g><g id="dark-icon"><svg xmlns="http://www.w3.org/2000/svg" version="1.1" xmlns:xlink="http://www.w3.org/1999/xlink" width="1000" height="1000"><g><g transform="matrix(1.25,0,0,1.25,0,0)"><svg xmlns="http://www.w3.org/2000/svg" xmlns:xlink="http://www.w3.org/1999/xlink" width="800px" height="800px" viewBox="0 0 36 36" aria-hidden="true" role="img" class="iconify iconify--twemoji" preserveAspectRatio="xMidYMid meet"><path fill="#8767AC" d="M36 1C16.118 1 1 16.118 1 36h17.042c0-9.917 8.042-17.958 17.958-17.958V1z"></path><path fill="#EB2027" d="M0 35.999h3.042c0-18.189 14.734-32.935 32.917-32.957V0C16.095.023 0 16.131 0 35.999z"></path><path fill="#F19020" d="M3.083 36h3C6.083 19.468 19.473 6.065 36 6.043v-3C17.817 3.065 3.083 17.811 3.083 36z"></path><path fill="#FFCB4C" d="M6.083 36h3C9.083 21.125 21.13 9.065 36 9.043v-3C19.473 6.065 6.083 19.468 6.083 36z"></path><path fill="#5C903F" d="M9.083 36h3c0-13.217 10.705-23.935 23.917-23.957v-3C21.13 9.065 9.083 21.125 9.083 36z"></path><path fill="#226798" d="M12.083 36h3c0-11.56 9.362-20.934 20.917-20.956v-3.001C22.788 12.065 12.083 22.783 12.083 36z"></path></svg></g></g></svg></g></svg>